<svg width="32" height="30" viewBox="0 0 32 30" fill="none" xmlns="http://www.w3.org/2000/svg">
<path d="M21.1735 0.816208C19.352 0.542551 17.4224 2.61912 16.8666 5.48447C16.3109 8.33371 17.3143 10.8771 19.1358 11.1669C20.942 11.4566 22.887 9.38005 23.4582 6.5147C24.0293 3.66545 22.9951 1.12206 21.1735 0.816208ZM10.1362 0.816208C8.29919 1.12206 7.28036 3.66545 7.82065 6.5147C8.40725 9.38005 10.3369 11.4566 12.1584 11.1669C13.9954 10.8771 14.9988 8.33371 14.4276 5.48447C13.8719 2.61912 11.9423 0.542551 10.1362 0.816208ZM29.4322 8.22103C27.6724 7.43226 25.2797 8.86493 24.0293 11.36C22.8561 13.9034 23.2575 16.5756 25.0018 17.3644C26.7462 18.1532 29.1235 16.7366 30.343 14.2093C31.5625 11.682 31.1303 8.99371 29.4322 8.22103ZM1.64592 8.22103C-0.0521355 8.99371 -0.484367 11.682 0.735142 14.2093C1.95465 16.7366 4.33193 18.1532 6.07629 17.3644C7.82065 16.5756 8.22201 13.9034 7.04881 11.36C5.79842 8.86493 3.40571 7.43226 1.64592 8.22103ZM4.22387 25.5741C4.16212 27.0872 5.27357 28.7614 6.60114 29.3892C9.36433 30.7092 12.6369 27.9726 15.7089 27.9726C18.7808 27.9726 22.0843 30.8218 24.8012 29.3892C26.3448 28.6004 27.41 26.5077 27.2093 24.7692C26.9314 22.3707 24.1683 21.0829 22.5319 19.3283C20.3554 17.0585 18.8117 12.7927 15.7089 12.7927C12.6215 12.7927 10.9852 16.9941 8.90123 19.3283C7.18774 21.2922 4.33192 22.9502 4.22387 25.5741Z" fill="white"/>
</svg>
